<svg width="40" height="40" viewBox="0 0 40 40" fill="none" xmlns="http://www.w3.org/2000/svg">
<path fill-rule="evenodd" clip-rule="evenodd" d="M23.9204 6.33387L25.589 2.99482C26.0336 2.1074 27.1154 1.74559 28.0046 2.1902C28.8938 2.63481 29.2538 3.71663 28.8092 4.60584L27.0164 8.1897C28.442 9.41012 29.5472 10.9959 30.1844 12.7996H36.2C37.1936 12.7996 38 13.606 38 14.5996C38 15.5932 37.1936 16.3996 36.2 16.3996H30.8V19.9997H36.2C37.1936 19.9997 38 20.8061 38 21.7997C38 22.7933 37.1936 23.5998 36.2 23.5998H30.8V27.1998H36.2C37.1936 27.1998 38 28.0062 38 28.9999C38 29.9935 37.1936 30.7999 36.2 30.7999H30.1844C28.703 34.9958 24.7016 38 20 38C15.2966 38 11.297 34.9958 9.81379 30.7999H3.8C2.8064 30.7999 2 29.9935 2 28.9999C2 28.0062 2.8064 27.1998 3.8 27.1998H9.2V23.5998H3.8C2.8064 23.5998 2 22.7933 2 21.7997C2 20.8061 2.8064 19.9997 3.8 19.9997H9.2V16.3996H3.8C2.8064 16.3996 2 15.5932 2 14.5996C2 13.606 2.8064 12.7996 3.8 12.7996H9.81379C10.451 10.9959 11.5562 9.41012 12.9818 8.1897L11.189 4.60584C10.7444 3.71663 11.1062 2.63481 11.9936 2.1902C12.8828 1.74559 13.9646 2.1074 14.4092 2.99482L16.0778 6.33387C17.2946 5.86046 18.6158 5.59946 20 5.59946C21.3824 5.59946 22.7054 5.86046 23.9204 6.33387ZM27.2 16.3996C27.2 12.4234 23.9762 9.19952 20 9.19952C16.0238 9.19952 12.8 12.4234 12.8 16.3996V27.1998C12.8 31.1779 16.0238 34.3999 20 34.3999C23.9762 34.3999 27.2 31.1779 27.2 27.1998V16.3996ZM21.8 27.1998C22.7936 27.1998 23.6 28.0062 23.6 28.9999C23.6 29.9935 22.7936 30.7999 21.8 30.7999C20.8064 30.7999 20 29.9935 20 28.9999C20 28.0062 20.8064 27.1998 21.8 27.1998ZM18.2 21.7997C19.1936 21.7997 20 22.6061 20 23.5998C20 24.5934 19.1936 25.3998 18.2 25.3998C17.2064 25.3998 16.4 24.5934 16.4 23.5998C16.4 22.6061 17.2064 21.7997 18.2 21.7997Z" fill="black"/>
</svg>
