<svg width="40" height="40" viewBox="0 0 40 40" fill="none" xmlns="http://www.w3.org/2000/svg">
<g clip-path="url(#clip0_862_11059)">
<path d="M32.8906 28.2024L28.676 28.2026C28.3356 28.2026 28.0205 28.3772 27.8264 28.6568C26.651 30.3504 25.1424 31.791 23.3939 32.8911H32.8906V35.3457C32.8906 35.7683 33.3824 36.0003 33.7086 35.7316L39.5318 30.9332C39.7745 30.7332 39.7745 30.3615 39.5318 30.1615L33.7086 25.3622C33.3825 25.0934 32.8906 25.3254 32.8906 25.748V28.2024Z" fill="black"/>
<path d="M15.4015 32.8867C22.4791 32.8384 28.2031 27.0897 28.2031 20.0005C28.2031 13.277 23.0536 7.76174 16.4844 7.16893V4.66176C16.4844 4.23784 15.9899 4.00626 15.6643 4.27765L9.9141 9.06946C9.67421 9.26937 9.67423 9.63783 9.91414 9.83772L15.6643 14.6286C15.99 14.8999 16.4844 14.6683 16.4844 14.2444V11.9158C20.4492 12.4906 23.5156 15.879 23.5156 20.0005C23.5156 24.5232 19.8352 28.2036 15.3125 28.2036H1C0.447715 28.2036 0 28.6513 0 29.2036V31.8911C0 32.4434 0.447715 32.8911 1 32.8911H15.4068C15.4045 32.8897 15.4038 32.8881 15.4015 32.8867Z" fill="black"/>
<path d="M7.71314 26.5452C8.6097 26.5452 9.11911 25.384 8.68823 24.5977C8.05109 23.4351 7.6875 22.1031 7.6875 20.6859C7.6875 18.4223 8.61923 16.3815 10.1106 14.8998C10.5726 14.4408 10.6009 13.664 10.1005 13.2471L8.06044 11.5472C7.68227 11.2321 7.12789 11.2362 6.77981 11.5843C4.44844 13.9154 3 17.1285 3 20.6859C3 22.5862 3.4379 24.3751 4.18163 25.996C4.338 26.3368 4.68429 26.5452 5.05924 26.5452H7.71314Z" fill="black"/>
</g>
<defs>
<clipPath id="clip0_862_11059">
<rect width="40" height="40" fill="white"/>
</clipPath>
</defs>
</svg>
