<svg width="40" height="40" viewBox="0 0 40 40" fill="none" xmlns="http://www.w3.org/2000/svg">
<path d="M20 2C10.0746 2 2 10.0746 2 20C2 29.9254 10.0746 38 20 38C29.9254 38 38 29.9254 38 20C38 10.0746 29.9254 2 20 2ZM20 34.0656C12.244 34.0656 5.93443 27.756 5.93443 20C5.93443 12.2444 12.244 5.93443 20 5.93443C27.756 5.93443 34.0656 12.2444 34.0656 20C34.0656 27.756 27.756 34.0656 20 34.0656Z" fill="black"/>
<path d="M21.5581 20.0218V12.4776C21.5581 11.6352 20.8754 10.9526 20.0334 10.9526C19.1911 10.9526 18.5084 11.6352 18.5084 12.4776V20.509C18.5084 20.533 18.5143 20.5555 18.5155 20.5794C18.4954 20.9941 18.6383 21.4151 18.955 21.7319L24.6344 27.4108C25.2301 28.0065 26.1955 28.0065 26.7908 27.4108C27.3861 26.8151 27.3865 25.8496 26.7908 25.2543L21.5581 20.0218Z" fill="black"/>
</svg>
